<svg xmlns = "http://www.w3.org/2000/svg" width = "79.467148" height = "641.44464">
	<path d = "M 7.3281857,2.0979414 C 12.374626,18.551187 12.411449,37.394831 12.108201,54.783501 10.262854,78.661484 8.6174047,102.10721 7.3163037,125.92368 c -5.4206158,22.54834 3.1298153,45.23421 1.280505,67.63974 -4.3113,22.61201 -0.592841,46.83768 -2.76,69.33125 1.01555,16.92955 -11.2010672,35.58098 -2.970997,52.44399 -3.85134027,21.82595 -0.0015,44.2471 -2.49095797,66.34169 2.43396567,20.68537 -2.21986333,46.86316 18.44508127,59.74765 22.420625,3.06487 19.51401,27.58452 20.776438,43.52723 11.107715,19.86423 5.603606,44.40234 14.335774,65.32349 0.459844,21.03567 1.899981,42.04306 -0.05977,63.25052 -0.151799,9.00181 -18.097319,42.33321 -0.904047,20.7912 17.327174,-17.48708 7.749944,-45.00465 14.000136,-66.62118 0.978354,-24.10092 -8.084405,-48.07226 -10.08827,-72.44014 -2.966976,-17.7299 -7.527871,-35.02118 -7.20933,-53.18692 14.779699,-10.27314 24.709162,-29.04816 25.821308,-46.95694 6.700744,-21.17356 -0.887776,-43.68129 -1.741944,-65.38897 -11.158301,-20.20657 -7.521722,-40.54831 -0.253801,-60.72573 1.050218,-19.76177 14.585761,-45.27255 -2.960074,-60.83117 -20.841817,-5.86311 -37.968221,10.39334 -44.774111,28.32116 -9.333173,22.05536 -1.214495,51.46946 16.681169,66.96872 9.363154,18.19675 -8.782022,39.75231 -7.474347,59.40338 -2.389744,21.48633 -3.940289,43.38321 -2.983462,64.64481 -20.228827,-6.63068 -15.807856,-34.15759 -19.132636,-51.20849 0.02112,-19.26165 3.212243,-37.77931 0.602466,-55.40186 -0.0768,-18.38222 -3.374556,-38.46093 1.051312,-54.98437 4.311423,-20.65164 3.905423,-41.41628 4.507115,-62.64906 3.387476,-31.90952 -1.803349,-63.9273 0.461208,-95.83192 C 16.656983,85.751617 20.878337,63.91664 20.024352,42.517829 15.662631,33.892463 24.061509,-10.013522 7.3281857,2.0979414 Z M 60.120203,219.22233 c 17.54937,17.49854 5.604325,49.03614 -3.235857,69.27393 -9.329726,15.85199 -26.06704,-25.38844 -24.969407,-35.89485 -3.248979,-17.5552 8.377424,-37.18073 28.205264,-33.37908 z m -2.628899,106.26989 c 8.963774,20.386 7.164557,43.58275 8.877004,65.4035 4.396575,14.12271 -21.066157,52.663 -24.183248,22.836 -1.27252,-25.33228 -1.259159,-51.72687 4.528087,-76.41954 2.933271,-3.94278 3.247242,-16.31676 10.778157,-11.81996 z" fill = "#000"/>
</svg>
