<svg width = "329.1907" height = "262.39294" xmlns = "http://www.w3.org/2000/svg">
	<g transform = "matrix(0.15935877,0.03471016,0.04365821,-0.1266971,-287.10546,359.25982)">
		<path d = "M 2507,3486 C 2412.863,3437.2513 2368.2023,3334.7265 2323.0969,3245.6936 2291.0346,3156.3619 2277.4776,3060.402 2238,2974 c -76.3476,46.6612 -153.8206,103.3028 -236.5156,144.7188 -97.9221,39.3011 -190.5779,88.7309 -291.9219,118.6718 -99.0686,27.196 -207.6095,27.8518 -295.3708,-31.8278 -91.9206,-39.2191 -170.6608,-107.2334 -206.3069,-202.2972 -68.9697,-79.299 -97.5647,-171.3219 -99.6973,-274.7968 -38.748,-95.521 -10.9737,-202.0363 39.9272,-287.1102 71.9887,-90.6016 146.3381,-200.938 267.4165,-225.0305 C 1488.8386,2154.7068 1571.0969,2111.3952 1668,2104 c 56.2621,36.8141 65.4627,161.3766 127.3125,217.2598 31.3573,102.8678 -96.3773,172.8544 -170.9687,100.2988 -105.0258,2.4546 -222.611,30.8237 -277.7481,132.6367 -37.1232,97.134 -101.5217,204.1304 -41.2056,307.509 37.062,100.5028 143.6625,133.6416 241.6099,114.2957 107.6374,10.1041 198.9719,-47.9559 292.1094,-91.5859 109.8526,-39.5563 197.5617,-118.9595 291.4804,-184.3868 35.5663,-102.9194 -33.4932,-202.2241 -35.457,-305.3144 -16.6298,-140.5309 -17.413,-284.7442 -70.0957,-418.3184 -45.8425,-90.8771 -24.977,-202.7532 -86.0527,-284.7851 -1.6821,-94.2652 -18.7853,-194.6491 -30.25,-289.6875 C 1842.2313,1388.2017 1886.5943,1248.671 1929,1309 c 36.6,57.8974 -0.8993,137.6128 78.75,169.25 13.4683,89.4503 72.6975,160.5949 90.5586,247.3867 10.5447,107.3526 55.1838,206.5549 77.2441,311.4727 17.8967,113.4216 47.5493,224.163 79.0723,334.2656 5.3197,111.0697 23.3773,257.0508 165.856,265.9355 102.2148,-0.9541 193.9502,46.6071 282.019,93.9864 107.2402,36.7826 186.8057,124.1233 254.6562,210.9531 8.7473,54.609 66.4689,102.4348 60.5975,156.0718 -29.2163,118.4911 -94.2197,225.226 -188.5076,303.4321 -75.1447,84.7828 -200.3228,106.2912 -307.4395,89.4961 z m 119,-226 c 78.9369,-52.7754 198.1346,-122.4945 187,-231 -41.5525,-106.6591 -177.5706,-51.1926 -243.7529,-126.6536 -80.536,-75.8651 -263.5484,-18.5842 -180.9424,105.761 34.881,98.9088 63.7424,236.817 182.5,262.7559 18.9746,0.9111 37.6067,-4.3285 55.1953,-10.8633 z"/>
	</g>
</svg>
